<svg width="303" height="29" viewBox="0 0 303 29" fill="none" xmlns="http://www.w3.org/2000/svg">
<g clip-path="url(#clipgocsig)">
<path d="M13.7517 0.68866H0V28.6886H13.7517V0.68866Z" fill="white"/>
<path d="M57.9995 0.68866H44.2478V28.6886H57.9995V0.68866Z" fill="white"/>
<path d="M27.0927 6.50817L29.0562 2.51031L31.0047 6.36259C31.2474 6.76947 31.4452 6.73587 31.8334 6.54177L33.5095 5.71308L32.4195 11.0921C32.1918 12.1485 32.7927 12.4583 33.446 11.7416L35.835 9.18834L36.4696 10.6329C36.6824 11.0697 37.0034 11.0062 37.4289 10.9278L39.8963 10.409L39.0676 13.5259V13.5931C38.9706 14 38.7765 14.3396 39.2319 14.5375L40.1091 14.9742L35.0026 19.2782C34.4837 19.812 34.6629 19.9762 34.857 20.5772L35.3273 22.0218L30.5829 21.1632C29.9969 21.0177 29.59 21.0177 29.5751 21.488L29.7692 26.9305H28.3432L28.5373 21.5029C28.5373 20.9691 28.1304 20.9841 27.1711 21.1819L22.7701 22.0255L23.3375 20.5809C23.5316 20.0285 23.5839 19.6552 23.1434 19.2819L17.9585 15.0377L18.9178 14.4516C19.1941 14.2389 19.209 14.0149 19.0634 13.5408L18.0891 10.3866L20.5901 10.9204C21.2882 11.0846 21.4823 10.9204 21.6615 10.5471L22.3595 9.11742L24.8306 11.8797C25.2674 12.3986 25.887 12.0589 25.6929 11.3123L24.5059 5.48164L26.3424 6.53803C26.6336 6.71721 26.9434 6.76574 27.1226 6.42605" fill="white"/>
<path d="M91.6236 12.3939H90.3382L90.0345 11.0493C88.9602 12.268 87.986 12.668 86.5896 12.668C83.1632 12.668 81.1111 9.94543 81.1111 6.67833C81.1111 3.41124 83.1669 0.68866 86.5933 0.68866C89.0936 0.68866 91.1902 2.02217 91.4939 4.6151H89.5418C89.3492 3.1112 88.0379 2.34073 86.5784 2.34073C84.1263 2.34073 83.1039 4.50397 83.1039 6.69685C83.1039 8.88973 84.13 11.053 86.5784 11.053C88.6269 11.0863 89.7492 9.85282 89.7826 7.91553H86.7414V6.37459H91.6087V12.3939H91.6236Z" fill="white"/>
<path d="M97.3395 11.1789C95.7059 11.1789 94.9836 9.69719 94.9836 8.24885C94.9836 6.80052 95.7059 5.33366 97.3395 5.33366C98.973 5.33366 99.6953 6.81533 99.6953 8.24885C99.6953 9.68237 98.973 11.1789 97.3395 11.1789ZM97.3395 12.6198C99.9991 12.6198 101.521 10.7936 101.521 8.24885C101.521 5.70408 99.9991 3.87421 97.3395 3.87421C94.6799 3.87421 93.1611 5.7263 93.1611 8.24885C93.1611 10.7714 94.6836 12.6198 97.3395 12.6198Z" fill="white"/>
<path d="M110.315 12.3938H108.522V11.2455H108.489C108.247 11.6582 107.904 12.0019 107.491 12.2432C107.079 12.4846 106.611 12.6156 106.133 12.6235C103.97 12.6235 103.043 11.5344 103.043 9.37118V4.11493H104.87V9.19338C104.87 10.6528 105.462 11.1788 106.455 11.1788C107.977 11.1788 108.489 10.2046 108.489 8.91927V4.10382H110.315V12.3938Z" fill="white"/>
<path d="M111.419 4.11517H113.404L115.501 10.4753H115.527L117.545 4.11517H119.435L116.471 12.394H114.415L111.419 4.11517Z" fill="white"/>
<path d="M121.972 7.52654C121.968 7.23872 122.022 6.95301 122.129 6.68614C122.237 6.41928 122.397 6.17662 122.6 5.9724C122.803 5.76817 123.045 5.60648 123.311 5.4968C123.577 5.38712 123.862 5.33166 124.15 5.33366C125.384 5.33366 126.169 6.37453 126.232 7.52654H121.972ZM128.058 8.72669C128.365 6.24489 126.761 3.87421 124.15 3.87421C121.683 3.87421 120.146 5.89299 120.146 8.24515C120.146 10.7899 121.602 12.6013 124.198 12.6013C126.006 12.6013 127.532 11.5937 127.947 9.78239H126.217C125.898 10.6973 125.258 11.1603 124.198 11.1603C122.676 11.1603 121.976 10.0083 121.976 8.70817L128.058 8.72669Z" fill="white"/>
<path d="M129.454 4.11494H131.169V5.72626H131.199C131.366 5.20806 131.687 4.75309 132.119 4.42214C132.551 4.09119 133.074 3.90002 133.618 3.87416C133.848 3.87194 134.079 3.88804 134.307 3.92232V5.68551C134.047 5.64242 133.785 5.6152 133.522 5.60402C132.273 5.60402 131.281 6.61156 131.281 8.43773V12.3938H129.454V4.11494Z" fill="white"/>
<path d="M135.089 4.11509H136.819V5.33377L136.852 5.36711C137.115 4.91269 137.493 4.53608 137.948 4.27576C138.404 4.01543 138.921 3.88074 139.445 3.88543C141.242 3.88543 142.375 4.84482 142.375 6.70432V12.394H140.549V7.20809C140.519 5.91162 140.005 5.356 138.93 5.356C137.712 5.356 136.93 6.31538 136.93 7.53406V12.394H135.104L135.089 4.11509Z" fill="white"/>
<path d="M145.708 7.52654C145.705 7.23872 145.758 6.95301 145.866 6.68614C145.974 6.41928 146.134 6.17662 146.337 5.9724C146.54 5.76817 146.781 5.60648 147.047 5.4968C147.313 5.38712 147.599 5.33166 147.887 5.33366C149.12 5.33366 149.905 6.37453 149.968 7.52654H145.708ZM151.794 8.72669C152.098 6.24489 150.498 3.87421 147.887 3.87421C145.42 3.87421 143.882 5.89299 143.882 8.24515C143.882 10.7899 145.342 12.6013 147.935 12.6013C149.746 12.6013 151.268 11.5937 151.683 9.78239H149.953C149.631 10.6973 148.99 11.1603 147.935 11.1603C146.412 11.1603 145.712 10.0083 145.712 8.70817L151.794 8.72669Z" fill="white"/>
<path d="M153.187 4.11516H154.917V5.26716H154.965C155.219 4.82223 155.591 4.45645 156.04 4.21055C156.49 3.96465 156.998 3.84827 157.51 3.87439C158.521 3.87439 159.466 4.30778 159.832 5.25235C160.109 4.81898 160.494 4.46445 160.948 4.22305C161.402 3.98166 161.911 3.86157 162.425 3.87439C164.17 3.87439 165.196 4.64486 165.196 6.65994V12.394H163.37V7.57858C163.37 6.26359 163.288 5.35606 161.866 5.35606C160.632 5.35606 160.103 6.17469 160.103 7.57858V12.394H158.277V7.07851C158.277 5.94133 157.906 5.33384 156.821 5.33384C155.876 5.33384 155.013 6.10431 155.013 7.47856V12.394H153.187V4.11516Z" fill="white"/>
<path d="M168.548 7.52654C168.544 7.23935 168.597 6.95425 168.705 6.68787C168.812 6.4215 168.971 6.17918 169.174 5.97505C169.376 5.77093 169.616 5.60909 169.882 5.49896C170.147 5.38884 170.431 5.33265 170.719 5.33366C171.952 5.33366 172.737 6.37453 172.8 7.52654H168.548ZM174.634 8.72669C174.938 6.24489 173.334 3.87421 170.719 3.87421C168.252 3.87421 166.714 5.89299 166.714 8.24515C166.714 10.7899 168.17 12.6013 170.767 12.6013C172.574 12.6013 174.1 11.5937 174.515 9.78239H172.786C172.467 10.6973 171.826 11.1603 170.767 11.1603C169.244 11.1603 168.544 10.0083 168.544 8.70817L174.634 8.72669Z" fill="white"/>
<path d="M176.027 4.11509H177.757V5.33377L177.79 5.36711C178.052 4.91269 178.431 4.53608 178.886 4.27576C179.342 4.01543 179.858 3.88074 180.383 3.88543C182.179 3.88543 183.313 4.84482 183.313 6.70432V12.394H181.461V7.20809C181.431 5.91162 180.916 5.356 179.842 5.356C178.623 5.356 177.838 6.31538 177.838 7.53406V12.394H176.012L176.027 4.11509Z" fill="white"/>
<path d="M184.387 4.11502H185.765V1.65173H187.591V4.13354H189.24V5.49668H187.591V9.90096C187.591 10.6418 187.654 11.0381 188.473 11.0381C188.731 11.0492 188.99 11.028 189.243 10.9752V12.3939C188.843 12.4235 188.458 12.4902 188.058 12.4902C186.154 12.4902 185.802 11.7494 185.769 10.3751V5.47816H184.391V4.11502H184.387Z" fill="white"/>
<path d="M82.8146 24.3621C82.8146 22.8804 83.4221 21.3506 85.1371 21.3506C86.5447 21.3506 87.4263 22.4396 87.4263 24.2658C87.4263 25.7067 86.7373 27.1958 85.1038 27.1958C83.4702 27.1958 82.8146 25.7845 82.8146 24.3621ZM89.1895 16.976H87.3744V21.2061H87.3411C86.7817 20.2949 85.626 19.9097 84.5889 19.9097C82.7775 19.9097 80.9995 21.221 80.9995 24.2176C80.9995 26.6994 82.2664 28.6367 84.8741 28.6367C85.915 28.6367 86.9558 28.2367 87.4374 27.2921H87.467V28.4034H89.1969V16.976H89.1895Z" fill="white"/>
<path d="M98.4465 28.4144H96.6351V27.2587C96.3939 27.6715 96.0504 28.0151 95.6378 28.2565C95.2251 28.4979 94.7572 28.6288 94.2793 28.6367C92.116 28.6367 91.1899 27.5477 91.1899 25.3844V20.1319H93.0161V25.2066C93.0161 26.6661 93.6088 27.1921 94.6015 27.1921C96.1239 27.1921 96.6351 26.2179 96.6351 24.9325V20.1171H98.4613V28.4144H98.4465Z" fill="white"/>
<path d="M112.796 20.6135C112.459 19.2985 111.611 18.3391 109.944 18.3391C107.492 18.3391 106.47 20.5024 106.47 22.6953C106.47 24.8881 107.496 27.0514 109.944 27.0514C111.722 27.0514 112.696 25.7253 112.859 24.0584H114.815C114.656 26.7958 112.719 28.6886 109.948 28.6886C106.522 28.6886 104.469 25.9661 104.469 22.699C104.469 19.4319 106.518 16.7093 109.948 16.7093C112.541 16.7093 114.56 18.1502 114.8 20.6172H112.796V20.6135Z" fill="white"/>
<path d="M121.494 25.6252C121.494 26.7772 120.246 27.1958 119.446 27.1958C118.805 27.1958 117.764 26.955 117.764 26.1401C117.764 25.1807 118.468 24.8918 119.245 24.7622C120.023 24.6325 120.927 24.6325 121.487 24.2658V25.6289L121.494 25.6252ZM123.32 22.2915C123.32 20.5468 121.624 19.8875 119.986 19.8875C118.16 19.8875 116.353 20.5135 116.223 22.6434H118.049C118.131 21.747 118.853 21.3284 119.875 21.3284C120.616 21.3284 121.59 21.5062 121.59 22.4396C121.59 23.5139 120.42 23.3694 119.108 23.6102C117.571 23.7843 115.923 24.1213 115.923 26.2031C115.923 27.8218 117.267 28.6219 118.757 28.6219C119.804 28.6514 120.825 28.2925 121.624 27.6144C121.768 28.3552 122.298 28.6219 123.035 28.6219C123.426 28.6023 123.813 28.5326 124.187 28.4145V27.1662C124.039 27.1886 123.889 27.1985 123.739 27.1958C123.402 27.1958 123.305 27.0217 123.305 26.5698V22.31L123.32 22.2915Z" fill="white"/>
<path d="M125.288 20.1318H127.01V21.3505L127.044 21.3838C127.306 20.9294 127.684 20.5528 128.14 20.2925C128.595 20.0322 129.112 19.8975 129.637 19.9022C131.433 19.9022 132.567 20.8615 132.567 22.721V28.4144H130.74V23.2063C130.711 21.9098 130.196 21.3542 129.122 21.3542C127.903 21.3542 127.121 22.3136 127.121 23.5323V28.4144H125.295L125.288 20.1318Z" fill="white"/>
<path d="M139.603 25.6252C139.603 26.7772 138.355 27.1958 137.551 27.1958C136.911 27.1958 135.87 26.955 135.87 26.1401C135.87 25.1807 136.573 24.8918 137.351 24.7622C138.129 24.6325 139.029 24.6177 139.603 24.2473V25.6104V25.6252ZM141.43 22.2915C141.43 20.5468 139.733 19.8875 138.114 19.8875C136.288 19.8875 134.477 20.5135 134.351 22.6434H136.177C136.259 21.747 136.977 21.3284 138.003 21.3284C138.744 21.3284 139.715 21.5062 139.715 22.4396C139.715 23.5139 138.544 23.3694 137.233 23.6102C135.696 23.7843 134.043 24.1213 134.043 26.2031C134.043 27.8218 135.392 28.6219 136.877 28.6219C137.924 28.6514 138.946 28.2925 139.744 27.6144C139.889 28.3552 140.418 28.6219 141.155 28.6219C141.547 28.6025 141.934 28.5328 142.307 28.4145V27.1662C142.159 27.1887 142.009 27.1986 141.859 27.1958C141.522 27.1958 141.426 27.0217 141.426 26.5698V22.31L141.43 22.2915Z" fill="white"/>
<path d="M144.812 24.3621C144.812 22.8804 145.419 21.3506 147.134 21.3506C148.542 21.3506 149.424 22.4396 149.424 24.2658C149.424 25.7067 148.735 27.1958 147.101 27.1958C145.468 27.1958 144.812 25.7845 144.812 24.3621ZM151.187 16.9797H149.361V21.2061H149.327C148.768 20.2949 147.616 19.9097 146.575 19.9097C144.764 19.9097 142.99 21.221 142.99 24.2176C142.99 26.6994 144.256 28.6367 146.864 28.6367C147.905 28.6367 148.946 28.2367 149.427 27.2921H149.461V28.4034H151.191V16.976L151.187 16.9797Z" fill="white"/>
<path d="M158.281 25.6252C158.281 26.7772 157.032 27.1958 156.232 27.1958C155.591 27.1958 154.551 26.955 154.551 26.1401C154.551 25.1807 155.254 24.8918 156.032 24.7622C156.81 24.6325 157.714 24.6325 158.273 24.2658V25.6289L158.281 25.6252ZM160.107 22.2915C160.107 20.5468 158.41 19.8875 156.792 19.8875C154.965 19.8875 153.154 20.5135 153.028 22.6434H154.854C154.936 21.747 155.654 21.3284 156.68 21.3284C157.421 21.3284 158.392 21.5062 158.392 22.4396C158.392 23.5139 157.221 23.3694 155.91 23.6102C154.373 23.7843 152.721 24.1213 152.721 26.2031C152.721 27.8218 154.069 28.6219 155.554 28.6219C156.602 28.651 157.623 28.2922 158.421 27.6144C158.566 28.3552 159.096 28.6219 159.829 28.6219C160.22 28.6024 160.608 28.5327 160.981 28.4145V27.1662C160.833 27.1887 160.683 27.1986 160.533 27.1958C160.196 27.1958 160.099 27.0217 160.099 26.5698V22.31L160.107 22.2915Z" fill="white"/>
<path d="M222.871 12.3976H221.589L221.285 11.053C220.211 12.2717 219.237 12.6717 217.84 12.6717C214.414 12.6717 212.362 9.94913 212.362 6.68204C212.362 3.41494 214.414 0.68866 217.84 0.68866C220.341 0.68866 222.437 2.01846 222.741 4.59658H220.789C220.596 3.09268 219.285 2.32221 217.825 2.32221C215.373 2.32221 214.351 4.48545 214.351 6.67833C214.351 8.87121 215.377 11.0345 217.825 11.0345C219.874 11.0641 220.996 9.8343 221.03 7.89331H217.988V6.37459H222.871V12.3976Z" fill="white"/>
<path d="M228.586 11.1789C226.953 11.1789 226.23 9.69723 226.23 8.24889C226.23 6.80055 226.953 5.33369 228.586 5.33369C230.22 5.33369 230.942 6.81537 230.942 8.24889C230.942 9.68241 230.22 11.1789 228.586 11.1789ZM228.586 12.6198C231.246 12.6198 232.768 10.7937 232.768 8.24889C232.768 5.70411 231.242 3.89276 228.586 3.89276C225.93 3.89276 224.404 5.71893 224.404 8.24889C224.404 10.7788 225.926 12.6235 228.586 12.6235V12.6198Z" fill="white"/>
<path d="M233.465 4.11863H235.45L237.539 10.475H237.573L239.591 4.11493H241.48L238.517 12.3938H236.469L233.465 4.11863Z" fill="white"/>
<path d="M244.026 7.52657C244.022 7.23875 244.075 6.95304 244.183 6.68618C244.291 6.41931 244.451 6.17666 244.654 5.97243C244.857 5.76821 245.098 5.60652 245.364 5.49684C245.631 5.38716 245.916 5.33169 246.204 5.33369C247.437 5.33369 248.222 6.37457 248.285 7.52657H244.026ZM250.112 8.73043C250.415 6.24863 248.815 3.89276 246.204 3.89276C243.737 3.89276 242.199 5.91154 242.199 8.2637C242.199 10.8085 243.659 12.6198 246.252 12.6198C248.063 12.6198 249.586 11.6123 250.001 9.80094H248.282C247.959 10.7159 247.322 11.1789 246.263 11.1789C244.741 11.1789 244.04 10.0269 244.04 8.72673L250.112 8.73043Z" fill="white"/>
<path d="M251.504 4.11869H253.219V5.7189H253.253C253.423 5.20526 253.746 4.7556 254.178 4.42948C254.61 4.10336 255.131 3.91618 255.671 3.89274C255.902 3.89042 256.132 3.90652 256.36 3.94089V5.70408C256.1 5.66108 255.838 5.63387 255.575 5.62259C254.327 5.62259 253.334 6.63013 253.334 8.4563V12.3976H251.504V4.11869Z" fill="white"/>
<path d="M257.142 4.11882H258.872V5.33749L258.905 5.37083C259.168 4.91642 259.546 4.5398 260.001 4.27948C260.457 4.01916 260.974 3.88446 261.498 3.88916C263.291 3.88916 264.428 4.84854 264.428 6.70804V12.3977H262.602V7.19329C262.569 5.89683 262.058 5.3412 260.983 5.3412C259.765 5.3412 258.979 6.30058 258.979 7.51926V12.3977H257.153V4.11882H257.142Z" fill="white"/>
<path d="M266.336 4.11878H268.066V5.27079H268.114C268.369 4.82861 268.742 4.46582 269.192 4.22261C269.641 3.9794 270.148 3.86526 270.659 3.89283C271.666 3.89283 272.614 4.32622 272.981 5.27079C273.258 4.83742 273.642 4.48289 274.097 4.24149C274.551 4.0001 275.06 3.88001 275.574 3.89283C277.319 3.89283 278.345 4.6633 278.345 6.67838V12.3976H276.519V7.55997C276.519 6.24499 276.437 5.33746 275.015 5.33746C273.781 5.33746 273.251 6.15609 273.251 7.55997V12.4125H271.425V7.08213C271.425 5.94495 271.055 5.33746 269.97 5.33746C269.025 5.33746 268.158 6.10793 268.158 7.48219V12.3976H266.332V4.11878H266.336Z" fill="white"/>
<path d="M281.697 7.52657C281.694 7.23875 281.747 6.95304 281.855 6.68618C281.963 6.41931 282.123 6.17666 282.326 5.97243C282.529 5.76821 282.77 5.60652 283.036 5.49684C283.302 5.38716 283.588 5.33169 283.876 5.33369C285.109 5.33369 285.894 6.37457 285.957 7.52657H281.697ZM287.783 8.73043C288.087 6.24863 286.487 3.89276 283.876 3.89276C281.409 3.89276 279.871 5.91154 279.871 8.2637C279.871 10.8085 281.327 12.6198 283.924 12.6198C285.735 12.6198 287.257 11.6123 287.672 9.80094H285.942C285.624 10.7159 284.983 11.1789 283.924 11.1789C282.401 11.1789 281.701 10.0269 281.701 8.72673L287.783 8.73043Z" fill="white"/>
<path d="M289.176 4.11882H290.906V5.33749L290.939 5.37083C291.202 4.91642 291.58 4.5398 292.035 4.27948C292.491 4.01916 293.007 3.88446 293.532 3.88916C295.325 3.88916 296.462 4.84854 296.462 6.70804V12.3977H294.621V7.19329C294.588 5.89683 294.077 5.3412 293.002 5.3412C291.784 5.3412 290.998 6.30058 290.998 7.51926V12.3977H289.176V4.11882Z" fill="white"/>
<path d="M297.547 4.11875H298.922V1.63324H300.748V4.11505H302.396V5.47819H300.748V9.90469C300.748 10.6455 300.811 11.0419 301.629 11.0419C301.888 11.0524 302.147 11.03 302.4 10.9752V12.3865C302 12.4161 301.615 12.4828 301.215 12.4828C299.307 12.4828 298.955 11.742 298.922 10.3677V5.47819H297.547V4.11875Z" fill="white"/>
<path d="M216.425 27.1959C214.792 27.1959 214.07 25.7142 214.07 24.2658C214.07 22.8175 214.796 21.3506 216.425 21.3506C218.055 21.3506 218.781 22.8323 218.781 24.2658C218.781 25.6994 218.066 27.1959 216.425 27.1959ZM216.425 28.6368C219.085 28.6368 220.604 26.8106 220.604 24.2658C220.604 21.7211 219.089 19.906 216.425 19.906C213.762 19.906 212.243 21.7322 212.243 24.2621C212.243 26.7921 213.77 28.6368 216.425 28.6368Z" fill="white"/>
<path d="M221.315 20.1319H222.674V19.4466C222.674 17.3315 223.786 16.9796 224.964 16.9796C225.394 16.9629 225.824 17.0002 226.245 17.0907V18.5168C225.968 18.4455 225.683 18.4131 225.397 18.4205C224.901 18.4205 224.501 18.5983 224.501 19.2836V20.1319H226.056V21.495H224.501V28.4255H222.674V21.495H221.315V20.1319Z" fill="white"/>
<path d="M239.606 20.6135C239.269 19.2986 238.421 18.3392 236.754 18.3392C234.302 18.3392 233.28 20.5024 233.28 22.6953C233.28 24.8882 234.306 27.0514 236.754 27.0514C238.532 27.0514 239.51 25.7216 239.669 24.0547H241.614C241.455 26.7921 239.518 28.685 236.747 28.685C233.32 28.685 231.268 25.9624 231.268 22.6953C231.268 19.4282 233.32 16.7056 236.747 16.7056C239.34 16.7056 241.358 18.1466 241.599 20.6135H239.599H239.606Z" fill="white"/>
<path d="M248.304 25.629C248.304 26.781 247.056 27.1996 246.252 27.1996C245.611 27.1996 244.57 26.9588 244.57 26.1439C244.57 25.1845 245.274 24.8956 246.052 24.7659C246.83 24.6363 247.733 24.6363 248.293 24.2695L248.304 25.629ZM250.13 22.2952C250.13 20.5505 248.433 19.8949 246.796 19.8949C244.97 19.8949 243.159 20.5209 243.033 22.6508H244.859C244.948 21.7581 245.689 21.3506 246.7 21.3506C247.441 21.3506 248.415 21.5284 248.415 22.4619C248.415 23.5361 247.244 23.3917 245.933 23.6324C244.396 23.8065 242.748 24.1436 242.748 26.2254C242.748 27.8441 244.092 28.6442 245.581 28.6442C246.628 28.6733 247.65 28.3145 248.448 27.6367C248.593 28.3775 249.122 28.6442 249.856 28.6442C250.247 28.6246 250.634 28.5549 251.008 28.4368V27.1662C250.86 27.1887 250.71 27.1986 250.56 27.1959C250.223 27.1959 250.126 27.0218 250.126 26.5698L250.13 22.2952Z" fill="white"/>
<path d="M252.097 20.1318H253.838V21.3505L253.871 21.3838C254.133 20.9294 254.512 20.5528 254.967 20.2925C255.423 20.0322 255.939 19.8975 256.464 19.9022C258.257 19.9022 259.394 20.8615 259.394 22.721V28.4255H257.542V23.21C257.509 21.9135 256.997 21.3579 255.923 21.3579C254.704 21.3579 253.919 22.3173 253.919 23.536V28.4255H252.097V20.1318Z" fill="white"/>
<path d="M266.399 25.629C266.399 26.781 265.15 27.1996 264.35 27.1996C263.709 27.1996 262.669 26.9588 262.669 26.1439C262.669 25.1845 263.372 24.8956 264.15 24.7659C264.928 24.6363 265.832 24.6363 266.391 24.2695L266.399 25.629ZM268.225 22.2952C268.225 20.5505 266.528 19.8949 264.891 19.8949C263.065 19.8949 261.257 20.5209 261.128 22.6508H262.954C263.035 21.7544 263.754 21.3395 264.78 21.3395C265.521 21.3395 266.495 21.5173 266.495 22.4508C266.495 23.525 265.324 23.3805 264.013 23.6213C262.476 23.7954 260.828 24.1325 260.828 26.2142C260.828 27.833 262.172 28.6331 263.661 28.6331C264.709 28.6622 265.73 28.3034 266.528 27.6255C266.673 28.3664 267.202 28.6331 267.936 28.6331C268.327 28.6135 268.714 28.5438 269.088 28.4256V27.1662C268.94 27.1887 268.79 27.1986 268.64 27.1959C268.303 27.1959 268.206 27.0218 268.206 26.5698L268.225 22.2952Z" fill="white"/>
<path d="M271.618 24.351C271.618 22.8693 272.225 21.3395 273.94 21.3395C275.348 21.3395 276.23 22.4285 276.23 24.2547C276.23 25.6956 275.541 27.1847 273.907 27.1847C272.274 27.1847 271.618 25.7882 271.618 24.351ZM277.996 16.9797H276.17V21.2062H276.137C275.578 20.2949 274.422 19.9097 273.381 19.9097C271.57 19.9097 269.795 21.221 269.795 24.2177C269.795 26.6995 271.059 28.6368 273.67 28.6368C274.711 28.6368 275.752 28.2367 276.233 27.2921H276.267V28.4034H277.996V16.9797Z" fill="white"/>
<path d="M285.09 25.629C285.09 26.781 283.842 27.1996 283.038 27.1996C282.397 27.1996 281.356 26.9588 281.356 26.1439C281.356 25.1845 282.06 24.8956 282.838 24.7659C283.616 24.6363 284.519 24.6363 285.079 24.2695L285.09 25.629ZM286.916 22.2952C286.916 20.5505 285.22 19.8949 283.582 19.8949C281.756 19.8949 279.945 20.5209 279.819 22.6508H281.645C281.726 21.7544 282.445 21.3395 283.471 21.3395C284.212 21.3395 285.186 21.5173 285.186 22.4508C285.186 23.525 284.016 23.3805 282.704 23.6213C281.167 23.7954 279.519 24.1325 279.519 26.2142C279.519 27.833 280.863 28.6331 282.353 28.6331C283.4 28.6625 284.421 28.3037 285.22 27.6255C285.364 28.3664 285.894 28.6331 286.627 28.6331C287.018 28.6135 287.406 28.5438 287.779 28.4256V27.1662C287.631 27.1887 287.481 27.1986 287.331 27.1959C286.994 27.1959 286.898 27.0218 286.898 26.5698L286.916 22.2952Z" fill="white"/>
</g>
<defs>
<clipPath id="clipgocsig">
<rect width="302.4" height="28" fill="white" transform="translate(0 0.68866)"/>
</clipPath>
</defs>
</svg>
