<svg width="300" height="59" viewBox="0 0 300 59" fill="none" xmlns="http://www.w3.org/2000/svg">
<g clip-path="url(#clipcds)">
<path d="M72.4561 17.4388H74.693C74.693 19.4125 74.693 19.6318 74.7149 19.9827C74.7368 20.4651 74.9123 22.2195 76.9737 22.2195C77.7193 22.2195 79.3421 21.9344 79.3421 19.873C79.3421 18.3818 78.6842 17.6362 77.6096 16.5397L75.0438 13.93C73.2675 12.0879 72.8728 10.9476 72.8728 9.23706C72.8728 8.20636 72.8728 4.82916 77.2368 4.82916C78.2017 4.82916 79.8245 4.98267 80.6798 6.38618C81.2061 7.26337 81.2061 7.89934 81.2061 10.6844H79.1447C79.1009 8.90811 79.1009 8.71074 79.0351 8.35986C78.9912 8.00899 78.75 6.84671 77.0833 6.84671C75.1096 6.84671 75.1096 8.55723 75.1096 9.08355C75.1096 10.4871 75.614 11.0572 76.9517 12.4607L79.3202 14.9388C80.8772 16.5835 81.557 17.5485 81.557 19.7195C81.557 23.7107 78.421 24.2371 76.9956 24.2371C75.1754 24.2371 74.2324 23.623 73.8377 23.2941C72.6316 22.3511 72.3684 20.9476 72.3684 19.5441V17.4388H72.4561Z" fill="white"/>
<path d="M90.7678 19.8071C90.7678 20.7062 90.7678 21.386 90.5265 22.0658C89.759 24.1711 87.6757 24.1711 86.9958 24.1711C86.2063 24.1711 84.3642 24.0615 83.5748 22.1097C83.3335 21.4737 83.2239 21.2106 83.2239 15.8378C83.2239 12.9869 83.4651 10.3773 86.9081 10.3773C87.7634 10.3773 90.2195 10.3773 90.6362 13.2939C90.7458 13.9518 90.7458 14.3246 90.7458 17.7018H85.3949C85.3949 18.7325 85.373 20.0922 85.4169 20.5746C85.4607 21.079 85.5704 22.4606 87.1055 22.4606C88.6625 22.4606 88.7941 21.1448 88.7941 19.7851H90.7678V19.8071ZM88.7721 15.9694V14.3246C88.7502 13.6009 88.7283 12.022 87.1274 12.022C86.0309 12.022 85.7239 12.7237 85.5704 13.1404C85.4169 13.6448 85.4169 14.0834 85.4169 15.9694H88.7721Z" fill="white"/>
<path d="M95.0878 23.9301H92.8948V10.5967H94.9562V13.0967C95.4386 12.066 96.272 10.2458 98.5527 10.3774V12.5923C97.5878 12.5923 96.4255 12.5923 95.6799 13.6888C95.2632 14.3248 95.0878 15.0704 95.0878 17.5485V23.9301Z" fill="white"/>
<path d="M104.78 23.9298H102.346L99.4954 10.5965H101.82L103.574 21.4956L105.526 10.5965H107.829L104.78 23.9298Z" fill="white"/>
<path d="M111.119 8.25032H109.014V5.50909H111.119V8.25032ZM111.119 23.9301H109.014V10.5749H111.119V23.9301Z" fill="white"/>
<path d="M120.834 18.9739C120.834 21.4082 120.834 24.1713 116.974 24.1713C115.351 24.1713 114.035 23.5792 113.597 22.0661C113.334 21.1889 113.268 19.7634 113.268 17.5924C113.268 12.8555 113.399 10.3555 117.193 10.3555C120.856 10.3555 120.856 12.7897 120.856 15.4213H118.816C118.816 13.1187 118.816 11.9783 117.127 11.9783C115.439 11.9783 115.417 13.1187 115.417 16.8687C115.417 17.395 115.417 19.3029 115.439 20.4432C115.461 21.145 115.527 22.5047 117.084 22.5047C118.663 22.5047 118.794 21.1889 118.794 18.9739H120.834Z" fill="white"/>
<path d="M130.219 19.8071C130.219 20.7062 130.219 21.386 129.978 22.0658C129.21 24.1711 127.127 24.1711 126.447 24.1711C125.657 24.1711 123.815 24.0615 123.026 22.1097C122.785 21.4737 122.675 21.2106 122.675 15.8378C122.675 12.9869 122.916 10.3773 126.359 10.3773C127.215 10.3773 129.671 10.3773 130.087 13.2939C130.197 13.9518 130.197 14.3246 130.197 17.7018H124.846C124.846 18.7325 124.824 20.0922 124.868 20.5746C124.912 21.079 125.022 22.4606 126.557 22.4606C128.114 22.4606 128.245 21.1448 128.245 19.7851H130.219V19.8071ZM128.223 15.9694V14.3246C128.201 13.6009 128.179 12.022 126.579 12.022C125.482 12.022 125.175 12.7237 125.022 13.1404C124.868 13.6448 124.868 14.0834 124.868 15.9694H128.223Z" fill="white"/>
<path d="M146.119 23.9299H143.948V15.2457C143.948 13.3159 143.948 12.0439 142.369 12.0439C140.592 12.0439 140.592 13.8641 140.592 15.3334V23.9518H138.465V10.6185H140.483V11.8466C140.877 11.3641 141.711 10.3773 143.333 10.3773C146.097 10.3773 146.097 12.7237 146.097 14.5659V23.9299H146.119Z" fill="white"/>
<path d="M156.118 23.9298H154.057V22.7018C153.64 23.2281 152.872 24.1711 151.228 24.1711C150.109 24.1711 149.408 23.6667 149.057 23.1404C148.486 22.2851 148.443 21.3202 148.443 18.9956V10.5965H150.57V19.3465L150.592 20.6184C150.592 21.1447 150.636 22.5702 152.149 22.5702C153.991 22.5702 153.991 20.7061 153.991 19.3246V10.5965H156.096V23.9298H156.118Z" fill="white"/>
<path d="M171.688 23.93H169.517V15.202C169.517 14.0178 169.495 13.5134 169.386 13.1186C169.188 12.5265 168.728 12.0002 167.829 12.0002C166.118 12.0002 166.118 13.7765 166.118 15.18V23.93H163.991V15.202C163.991 13.4257 163.991 12.0002 162.346 12.0002C160.614 12.0002 160.614 13.6888 160.614 15.2239V23.9081H158.443V10.5748H160.46V11.9125C160.855 11.3862 161.666 10.3336 163.311 10.3336C165.022 10.3336 165.636 11.3643 165.921 11.9125C166.337 11.3423 167.061 10.3336 168.684 10.3336C168.947 10.3336 169.934 10.3336 170.767 11.1669C171.666 12.066 171.666 13.0529 171.666 15.2239V23.93H171.688Z" fill="white"/>
<path d="M181.316 19.8072C181.316 20.7063 181.316 21.3861 181.074 22.066C180.307 24.1712 178.223 24.1712 177.544 24.1712C176.754 24.1712 174.912 24.0616 174.123 22.1098C173.881 21.4739 173.772 21.2107 173.772 15.8379C173.772 12.987 174.013 10.3774 177.456 10.3774C178.311 10.3774 180.767 10.3774 181.184 13.294C181.294 13.9519 181.294 14.3247 181.294 17.7019H175.943C175.943 18.7326 175.921 20.0923 175.965 20.5747C176.009 21.0791 176.118 22.4607 177.653 22.4607C179.21 22.4607 179.342 21.1449 179.342 19.7853H181.316V19.8072ZM179.32 15.9695V14.3247C179.298 13.601 179.276 12.0221 177.675 12.0221C176.579 12.0221 176.272 12.7239 176.118 13.1405C175.965 13.6449 175.965 14.0835 175.965 15.9695H179.32ZM178.114 8.93H176.403L177.807 6.05719H180.723L178.114 8.93Z" fill="white"/>
<path d="M185.636 23.9301H183.443V10.5967H185.504V13.0967C185.987 12.066 186.82 10.2458 189.101 10.3774V12.5923C188.136 12.5923 186.973 12.5923 186.228 13.6888C185.811 14.3248 185.636 15.0704 185.636 17.5485V23.9301Z" fill="white"/>
<path d="M192.215 8.25032H190.11V5.50909H192.215V8.25032ZM192.215 23.9301H190.11V10.5749H192.215V23.9301Z" fill="white"/>
<path d="M202.215 28.1843H200.11V22.6141C199.847 23.0308 199.145 24.193 197.435 24.193C195.834 24.193 194.825 23.0746 194.518 21.6273C194.386 20.8816 194.321 18.4036 194.321 17.5045C194.321 16.408 194.321 13.7983 194.518 12.9211C194.891 11.2983 196.163 10.3773 197.5 10.3773C199.123 10.3773 199.759 11.408 200.132 12.0659V10.6185H202.193L202.215 28.1843ZM200.044 14.1273C200.022 13.6229 199.891 12.0659 198.202 12.0659C196.755 12.0659 196.689 13.3378 196.623 13.886C196.579 14.5439 196.579 16.3422 196.579 17.5045C196.579 21.0352 196.579 22.4825 198.224 22.4825C200.154 22.4825 200.154 20.5308 200.154 17.1755C200.154 16.5395 200.088 14.7852 200.044 14.1273Z" fill="white"/>
<path d="M212.237 23.9298H210.176V22.7018C209.759 23.2281 208.992 24.1711 207.347 24.1711C206.228 24.1711 205.527 23.6667 205.176 23.1404C204.606 22.2851 204.562 21.3202 204.562 18.9956V10.5965H206.689V19.3465L206.711 20.6184C206.711 21.1447 206.755 22.5702 208.268 22.5702C210.11 22.5702 210.11 20.7061 210.11 19.3246V10.5965H212.215V23.9298H212.237Z" fill="white"/>
<path d="M221.886 19.8071C221.886 20.7062 221.886 21.386 221.645 22.0658C220.877 24.1711 218.794 24.1711 218.114 24.1711C217.324 24.1711 215.482 24.0615 214.693 22.1097C214.452 21.4737 214.342 21.2106 214.342 15.8378C214.342 12.9869 214.583 10.3773 218.026 10.3773C218.882 10.3773 221.338 10.3773 221.754 13.2939C221.864 13.9518 221.864 14.3246 221.864 17.7018H216.513C216.513 18.7325 216.491 20.0922 216.535 20.5746C216.579 21.079 216.689 22.4606 218.224 22.4606C219.781 22.4606 219.912 21.1448 219.912 19.7851H221.886V19.8071ZM219.89 15.9694V14.3246C219.868 13.6009 219.846 12.022 218.246 12.022C217.149 12.022 216.842 12.7237 216.689 13.1404C216.535 13.6448 216.535 14.0834 216.535 15.9694H219.89Z" fill="white"/>
<path d="M237.478 18.9739C237.478 21.4082 237.478 24.1713 233.619 24.1713C231.996 24.1713 230.68 23.5792 230.241 22.0661C229.978 21.1889 229.912 19.7634 229.912 17.5924C229.912 12.8555 230.044 10.3555 233.838 10.3555C237.5 10.3555 237.5 12.7897 237.5 15.4213H235.483C235.483 13.1187 235.483 11.9783 233.794 11.9783C232.105 11.9783 232.083 13.1187 232.083 16.8687C232.083 17.395 232.083 19.3029 232.105 20.4432C232.127 21.145 232.193 22.5047 233.75 22.5047C235.329 22.5047 235.461 21.1889 235.461 18.9739H237.478Z" fill="white"/>
<path d="M246.622 21.1011C246.622 23.1845 246.71 23.4696 247.258 23.9301H244.649V22.3292C244.364 22.9213 243.706 24.1713 241.907 24.1713C241.293 24.1713 240.767 24.0397 240.307 23.7766C239.057 23.031 238.925 21.759 238.925 20.7722C238.925 18.6011 239.78 17.9213 241.162 16.9564C243.179 15.5968 243.399 15.4652 244.517 14.4125C244.517 13.3161 244.517 12.0661 242.894 12.0661C241.293 12.0661 241.293 13.1845 241.293 13.9959C241.293 14.3906 241.315 14.6976 241.337 14.9827H239.386C239.364 14.4125 239.364 12.9871 239.583 12.3073C240.241 10.3555 242.522 10.3555 243.114 10.3555C244.079 10.3555 245.043 10.509 245.811 11.3424C246.644 12.1976 246.644 12.9213 246.644 14.7196L246.622 21.1011ZM244.517 16.3424C243.903 16.9345 243.793 17.0003 242.763 17.7897C241.798 18.5354 241.074 19.1055 241.074 20.6406C241.074 21.2327 241.074 22.6143 242.522 22.6143C242.916 22.6143 243.311 22.4827 243.662 22.2196C244.429 21.6275 244.517 20.7283 244.517 19.6538V16.3424Z" fill="white"/>
<path d="M256.644 23.9299H254.473V15.2457C254.473 13.3159 254.473 12.0439 252.894 12.0439C251.118 12.0439 251.118 13.8641 251.118 15.3334V23.9518H248.99V10.6185H251.008V11.8466C251.403 11.3641 252.236 10.3773 253.859 10.3773C256.622 10.3773 256.622 12.7237 256.622 14.5659L256.644 23.9299Z" fill="white"/>
<path d="M266.075 21.1011C266.075 23.1845 266.162 23.4696 266.711 23.9301H264.101V22.3292C263.816 22.9213 263.158 24.1713 261.36 24.1713C260.746 24.1713 260.219 24.0397 259.759 23.7766C258.509 23.031 258.377 21.759 258.377 20.7722C258.377 18.6011 259.232 17.9213 260.614 16.9564C262.632 15.5968 262.851 15.4652 263.969 14.4125C263.969 13.3161 263.969 12.0661 262.347 12.0661C260.746 12.0661 260.746 13.1845 260.746 13.9959C260.746 14.3906 260.768 14.6976 260.789 14.9827H258.838C258.816 14.4125 258.816 12.9871 259.035 12.3073C259.693 10.3555 261.974 10.3555 262.566 10.3555C263.531 10.3555 264.496 10.509 265.263 11.3424C266.097 12.1976 266.097 12.9213 266.097 14.7196L266.075 21.1011ZM263.969 16.3424C263.355 16.9345 263.246 17.0003 262.215 17.7897C261.25 18.5354 260.526 19.1055 260.526 20.6406C260.526 21.2327 260.526 22.6143 261.974 22.6143C262.368 22.6143 262.763 22.4827 263.114 22.2196C263.882 21.6275 263.969 20.7283 263.969 19.6538V16.3424Z" fill="white"/>
<path d="M276.097 23.9299H274.101V22.5264C273.816 23.0307 273.114 24.1711 271.294 24.1711C271.031 24.1711 270.724 24.1492 270.461 24.0614C268.29 23.4913 268.224 21.2325 268.224 17.3509C268.224 16.1009 268.224 13.6228 268.553 12.5702C268.926 11.3202 269.934 10.3553 271.404 10.3553C272.917 10.3553 273.575 11.1448 273.948 11.6711V5.11407H276.119L276.097 23.9299ZM272.127 12.0439C270.527 12.0439 270.483 13.6667 270.417 14.7413C270.373 16.1886 270.373 16.1886 270.373 18.3378C270.373 18.9299 270.373 19.6097 270.417 20.443C270.461 21.0132 270.548 22.5044 272.127 22.5044C273.948 22.5044 273.948 20.7281 273.991 17.329C274.035 14.1272 274.035 12.0439 272.127 12.0439Z" fill="white"/>
<path d="M280.548 8.25032H278.443V5.50909H280.548V8.25032ZM280.548 23.9301H278.443V10.5749H280.548V23.9301Z" fill="white"/>
<path d="M290.197 19.8071C290.197 20.7062 290.197 21.386 289.956 22.0658C289.189 24.1711 287.105 24.1711 286.425 24.1711C285.636 24.1711 283.794 24.0615 283.004 22.1097C282.763 21.4737 282.654 21.2106 282.654 15.8378C282.654 12.9869 282.895 10.3773 286.338 10.3773C287.193 10.3773 289.649 10.3773 290.066 13.2939C290.175 13.9518 290.175 14.3246 290.175 17.7018H284.825C284.825 18.7325 284.803 20.0922 284.847 20.5746C284.89 21.079 285 22.4606 286.535 22.4606C288.092 22.4606 288.224 21.1448 288.224 19.7851H290.197V19.8071ZM288.202 15.9694V14.3246C288.18 13.6009 288.158 12.022 286.557 12.022C285.461 12.022 285.154 12.7237 285 13.1404C284.847 13.6448 284.847 14.0834 284.847 15.9694H288.202Z" fill="white"/>
<path d="M300 23.9299H297.829V15.2457C297.829 13.3159 297.829 12.0439 296.25 12.0439C294.474 12.0439 294.474 13.8641 294.474 15.3334V23.9518H292.347V10.6185H294.364V11.8466C294.759 11.3641 295.593 10.3773 297.215 10.3773C299.979 10.3773 299.979 12.7237 299.979 14.5659L300 23.9299Z" fill="white"/>
<path d="M81.3377 44.6843C81.3377 47.2281 81.3158 47.886 81.1403 48.6097C80.8991 49.7062 80.2851 51.5922 76.9079 51.5922C74.0351 51.5922 72.8509 49.8816 72.5658 48.1492C72.4781 47.6229 72.3684 46.8115 72.3684 42.1185C72.3684 37.1623 72.4561 36.5702 72.5877 35.7369C72.7412 34.9036 73.2237 32.1843 77.1053 32.1843C78.6623 32.1843 80.5702 32.8422 81.0526 34.9036C81.2719 35.8027 81.2719 36.9211 81.25 38.3904H79.057V36.9869C79.057 35.715 79.0351 34.1579 77.1053 34.1579C75.1096 34.1579 74.9342 35.7588 74.8684 36.4825C74.7149 37.8422 74.7149 40.693 74.7149 42.1404C74.7149 43.2808 74.7588 47.0965 74.8684 47.8422C74.9561 48.193 75.1974 49.5965 77.0614 49.5965C78.75 49.5965 78.9912 48.1492 79.057 47.8202C79.1667 47.3378 79.1667 46.9211 79.1667 44.6623L81.3377 44.6843Z" fill="white"/>
<path d="M90.5707 48.5002C90.5707 50.5835 90.6584 50.8686 91.2066 51.3291H88.597V49.7283C88.3119 50.3204 87.654 51.5704 85.8557 51.5704C85.2417 51.5704 84.7154 51.4388 84.2549 51.1756C83.0049 50.43 82.8733 49.1581 82.8733 48.1712C82.8733 46.0002 83.7286 45.3204 85.1101 44.3555C87.1277 42.9958 87.347 42.8642 88.4654 41.8116C88.4654 40.7151 88.4654 39.4651 86.8426 39.4651C85.2417 39.4651 85.2417 40.5835 85.2417 41.3949C85.2417 41.7897 85.2636 42.0967 85.2856 42.3818H83.3338C83.3119 41.8116 83.3119 40.3862 83.5312 39.7063C84.1891 37.7546 86.4698 37.7546 87.0619 37.7546C88.0268 37.7546 88.9917 37.9081 89.7593 38.7414C90.5926 39.5967 90.5926 40.3204 90.5926 42.1186V48.5002H90.5707ZM88.4654 43.7195C87.8514 44.3116 87.7417 44.3774 86.711 45.1669C85.7461 45.9125 85.0224 46.4826 85.0224 48.0177C85.0224 48.6098 85.0224 49.9914 86.4698 49.9914C86.8645 49.9914 87.2593 49.8598 87.6101 49.5967C88.3777 49.0046 88.4654 48.1055 88.4654 47.0309V43.7195Z" fill="white"/>
<path d="M100.592 51.3289H98.4212V42.6447C98.4212 40.7149 98.4212 39.443 96.8422 39.443C95.0659 39.443 95.0659 41.2631 95.0659 42.7324V51.3509H92.9387V38.0175H94.9563V39.2456C95.351 38.7631 96.1843 37.7763 97.8071 37.7763C100.57 37.7763 100.57 40.1228 100.57 41.9649V51.3289H100.592Z" fill="white"/>
<path d="M110.022 48.5002C110.022 50.5835 110.11 50.8686 110.658 51.3291H108.048V49.7283C107.763 50.3204 107.105 51.5704 105.307 51.5704C104.693 51.5704 104.167 51.4388 103.706 51.1756C102.456 50.43 102.324 49.1581 102.324 48.1712C102.324 46.0002 103.18 45.3204 104.561 44.3555C106.579 42.9958 106.798 42.8642 107.917 41.8116C107.917 40.7151 107.917 39.4651 106.294 39.4651C104.693 39.4651 104.693 40.5835 104.693 41.3949C104.693 41.7897 104.715 42.0967 104.737 42.3818H102.785C102.763 41.8116 102.763 40.3862 102.982 39.7063C103.64 37.7546 105.921 37.7546 106.513 37.7546C107.478 37.7546 108.443 37.9081 109.21 38.7414C110.044 39.5967 110.044 40.3204 110.044 42.1186L110.022 48.5002ZM107.917 43.7195C107.303 44.3116 107.193 44.3774 106.162 45.1669C105.197 45.9125 104.474 46.4826 104.474 48.0177C104.474 48.6098 104.474 49.9914 105.921 49.9914C106.316 49.9914 106.71 49.8598 107.061 49.5967C107.829 49.0046 107.917 48.1055 107.917 47.0309V43.7195Z" fill="white"/>
<path d="M120.044 51.3291H118.048V49.9256C117.763 50.43 117.061 51.5703 115.241 51.5703C114.978 51.5703 114.671 51.5484 114.408 51.4607C112.237 50.8905 112.171 48.6317 112.171 44.7502C112.171 43.5002 112.171 41.0221 112.5 39.9695C112.873 38.7195 113.882 37.7546 115.351 37.7546C116.864 37.7546 117.522 38.544 117.895 39.0703V32.4914H120.066V51.3291H120.044ZM116.075 39.4431C114.474 39.4431 114.43 41.066 114.364 42.1405C114.32 43.5879 114.32 43.5879 114.32 45.737C114.32 46.3291 114.32 47.0089 114.364 47.8423C114.408 48.4124 114.496 49.9037 116.075 49.9037C117.895 49.9037 117.895 48.1274 117.939 44.7282C117.983 41.5265 117.983 39.4431 116.075 39.4431Z" fill="white"/>
<path d="M124.495 35.6491H122.39V32.9079H124.495V35.6491ZM124.495 51.3289H122.39V37.9737H124.495V51.3289Z" fill="white"/>
<path d="M133.903 48.5002C133.903 50.5835 133.99 50.8686 134.539 51.3291H131.929V49.7283C131.644 50.3204 130.986 51.5704 129.188 51.5704C128.574 51.5704 128.047 51.4388 127.587 51.1756C126.337 50.43 126.205 49.1581 126.205 48.1712C126.205 46.0002 127.061 45.3204 128.442 44.3555C130.46 42.9958 130.679 42.8642 131.797 41.8116C131.797 40.7151 131.797 39.4651 130.175 39.4651C128.574 39.4651 128.574 40.5835 128.574 41.3949C128.574 41.7897 128.596 42.0967 128.618 42.3818H126.666C126.644 41.8116 126.644 40.3862 126.863 39.7063C127.521 37.7546 129.802 37.7546 130.394 37.7546C131.359 37.7546 132.324 37.9081 133.091 38.7414C133.925 39.5967 133.925 40.3204 133.925 42.1186L133.903 48.5002ZM131.797 43.7195C131.183 44.3116 131.074 44.3774 130.043 45.1669C129.078 45.9125 128.354 46.4826 128.354 48.0177C128.354 48.6098 128.354 49.9914 129.802 49.9914C130.197 49.9914 130.591 49.8598 130.942 49.5967C131.71 49.0046 131.797 48.1055 131.797 47.0309V43.7195Z" fill="white"/>
<path d="M143.925 51.3289H141.754V42.6447C141.754 40.7149 141.754 39.443 140.175 39.443C138.399 39.443 138.399 41.2631 138.399 42.7324V51.3509H136.272V38.0175H138.289V39.2456C138.684 38.7631 139.517 37.7763 141.14 37.7763C143.903 37.7763 143.903 40.1228 143.903 41.9649V51.3289H143.925Z" fill="white"/>
<path d="M152.544 51.3291V32.4914H156.097C157.939 32.4914 159.628 32.4914 160.746 33.8949C161.623 34.9914 161.711 35.9782 161.711 40.5396C161.711 41.5484 161.711 42.7546 161.667 45.3203C161.645 47.1624 161.579 48.5002 160.921 49.6186C159.847 51.3291 158.092 51.3291 156.075 51.3291H152.544ZM154.891 49.2458H156.404C157.895 49.2458 158.97 49.1142 159.233 47.4256C159.364 46.5484 159.386 43.8949 159.386 42.9081C159.386 41.1756 159.386 40.5177 159.364 38.6975C159.342 36.6361 159.321 35.6274 158.487 35.0353C157.895 34.6405 157.369 34.6405 154.891 34.6405V49.2458Z" fill="white"/>
<path d="M166.14 35.6491H164.034V32.9079H166.14V35.6491ZM166.14 51.3289H164.034V37.9737H166.14V51.3289Z" fill="white"/>
<path d="M176.184 37.9955V50.6271C176.184 52.3376 176.184 52.8639 175.942 53.6095C175.328 55.4955 173.179 55.8025 172.017 55.8025C170.438 55.8025 168.398 55.1008 168.398 52.3815H170.35C170.372 52.9517 170.438 54.1139 172.17 54.1139C174.034 54.1139 174.034 52.6666 174.034 51.4824V49.9253C173.311 50.956 172.346 51.3946 171.337 51.3946C170.372 51.3946 169.144 50.9999 168.64 49.6402C168.267 48.6534 168.267 47.6885 168.267 44.3771C168.267 42.0306 168.289 41.0876 168.508 40.2104C168.618 39.706 169.1 37.7324 171.578 37.7324C173.311 37.7324 173.903 38.6753 174.188 39.1797V37.9736H176.184V37.9955ZM173.991 41.4604C173.947 40.1885 173.398 39.2674 172.17 39.2674C170.416 39.2674 170.416 41.1973 170.416 43.3025C170.416 44.6183 170.416 47.0087 170.504 47.9517C170.548 48.9824 170.986 49.7938 172.126 49.7938C173.135 49.7938 173.771 49.1578 173.969 48.171C174.078 47.5569 174.078 45.6052 174.078 44.8596C174.078 44.7938 174.012 41.8332 173.991 41.4604Z" fill="white"/>
<path d="M180.613 35.6491H178.508V32.9079H180.613V35.6491ZM180.613 51.3289H178.508V37.9737H180.613V51.3289Z" fill="white"/>
<path d="M187.676 39.5965H185.724V48.0833C185.724 48.9386 185.812 49.7938 186.952 49.7938C187.303 49.7938 187.478 49.75 187.697 49.6842V51.4167C187.412 51.5044 187.083 51.5702 186.513 51.5702C184.649 51.5702 184.057 50.9342 183.794 50.3202C183.531 49.7061 183.531 49.443 183.531 46.9868V39.5965H181.93V37.9737H183.575V34.3991H185.702V37.9737H187.654V39.5965H187.676Z" fill="white"/>
<path d="M196.381 48.5002C196.381 50.5835 196.469 50.8686 197.017 51.3291H194.408V49.7283C194.122 50.3204 193.465 51.5704 191.666 51.5704C191.052 51.5704 190.526 51.4388 190.065 51.1756C188.815 50.43 188.684 49.1581 188.684 48.1712C188.684 46.0002 189.539 45.3204 190.921 44.3555C192.938 42.9958 193.158 42.8642 194.276 41.8116C194.276 40.7151 194.276 39.4651 192.653 39.4651C191.052 39.4651 191.052 40.5835 191.052 41.3949C191.052 41.7897 191.074 42.0967 191.096 42.3818H189.144C189.122 41.8116 189.122 40.3862 189.342 39.7063C190 37.7546 192.28 37.7546 192.872 37.7546C193.837 37.7546 194.802 37.9081 195.57 38.7414C196.403 39.5967 196.403 40.3204 196.403 42.1186L196.381 48.5002ZM194.276 43.7195C193.662 44.3116 193.552 44.3774 192.522 45.1669C191.557 45.9125 190.833 46.4826 190.833 48.0177C190.833 48.6098 190.833 49.9914 192.28 49.9914C192.675 49.9914 193.07 49.8598 193.421 49.5967C194.188 49.0046 194.276 48.1055 194.276 47.0309V43.7195Z" fill="white"/>
<path d="M200.9 51.3291H198.729V32.4914H200.9V51.3291Z" fill="white"/>
<path d="M208.859 44.8159H211.096C211.096 46.7896 211.096 47.0089 211.118 47.3597C211.14 47.8422 211.316 49.5966 213.377 49.5966C214.123 49.5966 215.745 49.3115 215.745 47.2501C215.745 45.7589 215.088 45.0133 214.013 43.9168L211.447 41.3071C209.671 39.465 209.276 38.3247 209.276 36.6141C209.276 35.5834 209.276 32.2062 213.64 32.2062C214.605 32.2062 216.228 32.3597 217.083 33.7633C217.609 34.6404 217.609 35.2764 217.609 38.0615H215.548C215.504 36.2852 215.504 36.0878 215.438 35.7369C215.395 35.3861 215.153 34.2238 213.487 34.2238C211.513 34.2238 211.513 35.9343 211.513 36.4606C211.513 37.8641 212.017 38.4343 213.355 39.8378L215.723 42.3159C217.28 43.9606 217.96 44.9255 217.96 47.0966C217.96 51.0878 214.802 51.6141 213.399 51.6141C211.579 51.6141 210.636 51.0001 210.241 50.6711C209.035 49.7282 208.772 48.3247 208.772 46.9212V44.8159H208.859Z" fill="white"/>
<path d="M227.193 47.2061C227.193 48.1053 227.193 48.7851 226.951 49.4649C226.184 51.5702 224.1 51.5702 223.421 51.5702C222.631 51.5702 220.789 51.4605 220 49.5088C219.758 48.8728 219.649 48.6096 219.649 43.2368C219.649 40.386 219.89 37.7763 223.333 37.7763C224.188 37.7763 226.644 37.7763 227.061 40.693C227.171 41.3509 227.171 41.7237 227.171 45.1009H221.82C221.82 46.1316 221.798 47.4912 221.842 47.9737C221.886 48.4781 221.995 49.8596 223.53 49.8596C225.087 49.8596 225.219 48.5439 225.219 47.1842L227.193 47.2061ZM225.197 43.3465V41.7017C225.175 40.9781 225.153 39.3991 223.552 39.3991C222.456 39.3991 222.149 40.1009 221.995 40.5175C221.842 41.0219 221.842 41.4605 221.842 43.3465H225.197Z" fill="white"/>
<path d="M231.514 51.3289H229.321V37.9955H231.382V40.4955C231.864 39.4648 232.698 37.6447 234.978 37.7762V39.9911C234.014 39.9911 232.851 39.9911 232.106 41.0876C231.689 41.7236 231.514 42.4692 231.514 44.9473V51.3289Z" fill="white"/>
<path d="M241.185 51.3291H238.751L235.9 37.9958H238.224L239.979 48.8949L241.93 37.9958H244.233L241.185 51.3291Z" fill="white"/>
<path d="M247.544 35.6491H245.439V32.9079H247.544V35.6491ZM247.544 51.3289H245.439V37.9737H247.544V51.3289Z" fill="white"/>
<path d="M257.237 46.373C257.237 48.8072 257.237 51.5704 253.377 51.5704C251.754 51.5704 250.439 50.9783 250 49.4651C249.737 48.5879 249.671 47.1625 249.671 44.9914C249.671 40.2546 249.803 37.7546 253.597 37.7546C257.259 37.7546 257.259 40.1888 257.259 42.8204H255.241C255.241 40.5177 255.241 39.3774 253.553 39.3774C251.864 39.3774 251.842 40.5177 251.842 44.2677C251.842 44.7941 251.842 46.7019 251.864 47.8423C251.886 48.5441 251.952 49.9037 253.509 49.9037C255.088 49.9037 255.219 48.5879 255.219 46.373H257.237Z" fill="white"/>
<path d="M266.623 47.2061C266.623 48.1053 266.623 48.7851 266.382 49.4649C265.614 51.5702 263.531 51.5702 262.851 51.5702C262.062 51.5702 260.22 51.4605 259.43 49.5088C259.189 48.8728 259.079 48.6096 259.079 43.2368C259.079 40.386 259.321 37.7763 262.764 37.7763C263.619 37.7763 266.075 37.7763 266.492 40.693C266.601 41.3509 266.601 41.7237 266.601 45.1009H261.272C261.272 46.1316 261.25 47.4912 261.294 47.9737C261.338 48.4781 261.448 49.8596 262.983 49.8596C264.54 49.8596 264.671 48.5439 264.671 47.1842L266.623 47.2061ZM264.628 43.3465V41.7017C264.606 40.9781 264.584 39.3991 262.983 39.3991C261.886 39.3991 261.579 40.1009 261.426 40.5175C261.272 41.0219 261.272 41.4605 261.272 43.3465H264.628Z" fill="white"/>
<path d="M57.2355 0.988342H0.764648V57.4592H57.2355V0.988342Z" fill="black"/>
<path d="M46.7495 16.6953L46.6621 14.2049C46.6621 13.9646 46.8587 13.9646 47.2956 14.0519L49.3054 14.4452L49.0433 13.7898C48.9559 13.5276 48.934 13.3747 49.1307 13.2L51.5118 11.2557L51.0749 10.9936C50.9438 10.9062 50.9438 10.797 51.0094 10.5785L51.4463 9.13669L50.2885 9.37699C49.9608 9.44253 49.8734 9.37699 49.8079 9.20223L49.4802 8.54686L48.3442 9.83575C48.1476 10.076 47.8636 9.92313 47.951 9.5736L48.4971 6.90844L47.667 7.38904C47.5359 7.47643 47.383 7.49827 47.3175 7.34535L46.4218 5.55402L45.5261 7.34535C45.4388 7.49827 45.3077 7.47643 45.1766 7.38904L44.3465 6.90844L44.8926 9.5736C44.98 9.92313 44.696 10.076 44.4994 9.83575L43.3634 8.54686L43.0357 9.20223C42.9484 9.37699 42.861 9.46437 42.5551 9.37699L41.3973 9.13669L41.8342 10.5785C41.8998 10.797 41.8998 10.9062 41.7687 10.9936L41.3318 11.2557L43.713 13.2C43.9096 13.3747 43.8877 13.5495 43.8003 13.7898L43.5382 14.4452L45.548 14.0519C45.9849 13.9646 46.1815 13.9646 46.1815 14.2049L46.0941 16.6953H46.7495Z" fill="white"/>
<path d="M31.3428 31.3657H32.834C32.834 32.6815 32.834 32.8131 32.8559 33.0324C32.8779 33.3394 32.9875 34.5236 34.3472 34.5236C34.8515 34.5236 35.9261 34.3262 35.9261 32.9666C35.9261 31.9798 35.4875 31.4754 34.7858 30.7517L33.0972 29.0192C31.9129 27.8131 31.6717 27.0455 31.6717 25.9052C31.6717 25.2254 31.6717 22.9885 34.5665 22.9885C35.2024 22.9885 36.277 23.0982 36.8472 24.0192C37.198 24.6113 37.198 25.028 37.198 26.8482H35.7945C35.7507 25.664 35.7507 25.5324 35.7287 25.3131C35.6849 25.0938 35.5314 24.3043 34.4349 24.3043C33.141 24.3043 33.141 25.4227 33.141 25.7955C33.141 26.7385 33.47 27.1113 34.3472 28.0324L35.9261 29.6771C36.9568 30.7736 37.4173 31.4096 37.4173 32.835C37.4173 35.4885 35.334 35.8175 34.4129 35.8175C33.2068 35.8175 32.5708 35.4227 32.3296 35.2034C31.5401 34.5894 31.3647 33.6464 31.3647 32.7254V31.3657H31.3428Z" fill="white"/>
<path d="M44.3468 35.6639H42.1539L39.7416 24.8744L39.9609 35.6639H38.4258V23.2078H40.531L43.053 34.1288L42.8337 23.2078H44.3249V35.6639H44.3468Z" fill="white"/>
<path d="M51.5182 31.2778C51.5182 32.9445 51.4962 33.3831 51.3866 33.8655C51.2331 34.5892 50.8164 35.8392 48.5796 35.8392C46.6717 35.8392 45.9041 34.7208 45.7068 33.5585C45.6629 33.2076 45.5752 32.6813 45.5752 29.5673C45.5752 26.2778 45.6191 25.905 45.7068 25.3567C45.8164 24.8085 46.1234 23.0103 48.6892 23.0103C49.7199 23.0103 50.9919 23.4489 51.2989 24.8085C51.4305 25.4006 51.4305 26.1462 51.4305 27.1111H49.9831V26.1681C49.9831 25.3129 49.9612 24.3041 48.6892 24.3041C47.3734 24.3041 47.2638 25.3567 47.198 25.8392C47.0884 26.7383 47.0884 28.6243 47.0884 29.5673C47.0884 30.3348 47.1322 32.8567 47.198 33.3392C47.2419 33.5585 47.4173 34.5015 48.6454 34.5015C49.7638 34.5015 49.9173 33.5585 49.9612 33.3173C50.0269 33.0102 50.0269 32.7252 50.0269 31.2339H51.5182V31.2778Z" fill="white"/>
<path d="M37.2858 47.1287C37.2858 48.7954 37.2638 49.2339 37.1542 49.7164C37.0007 50.4401 36.584 51.6901 34.3472 51.6901C32.4393 51.6901 31.6717 50.5717 31.4744 49.4094C31.4305 49.0585 31.3428 48.5322 31.3428 45.4182C31.3428 42.1287 31.3866 41.7559 31.4744 41.2076C31.584 40.6594 31.891 38.8611 34.4568 38.8611C35.4875 38.8611 36.7594 39.2997 37.0665 40.6594C37.198 41.2515 37.198 41.9971 37.198 42.962H35.7507V42.019C35.7507 41.1638 35.7287 40.155 34.4568 40.155C33.141 40.155 33.0314 41.2076 32.9656 41.6901C32.8559 42.5892 32.8559 44.4752 32.8559 45.4182C32.8559 46.1857 32.8998 48.7076 32.9656 49.1901C33.0094 49.4094 33.1849 50.3524 34.413 50.3524C35.5314 50.3524 35.6849 49.4094 35.7287 49.1682C35.7945 48.8611 35.7945 48.5761 35.7945 47.0848H37.2858V47.1287Z" fill="white"/>
<path d="M38.5566 51.5365V39.0804H40.9031C42.1093 39.0804 43.2277 39.0804 43.9733 40.0234C44.5654 40.7471 44.6093 41.4049 44.6093 44.4093C44.6093 45.0892 44.6093 45.8786 44.5654 47.5672C44.5435 48.7734 44.5216 49.6725 44.061 50.3962C43.3593 51.5146 42.197 51.5146 40.8593 51.5146H38.5566V51.5365ZM40.1137 50.1769H41.1224C42.1093 50.1769 42.811 50.0892 42.9865 48.9707C43.0742 48.3786 43.0961 46.6462 43.0961 45.9883C43.0961 44.8479 43.0961 44.4093 43.0742 43.2032C43.0523 41.8435 43.0303 41.1856 42.4821 40.7909C42.0873 40.5278 41.7365 40.5278 40.0917 40.5278V50.1769H40.1137Z" fill="white"/>
<path d="M45.5967 47.2164H47.0879C47.0879 48.5321 47.0879 48.6637 47.1098 48.883C47.1318 49.19 47.2414 50.3743 48.6011 50.3743C49.1054 50.3743 50.18 50.1769 50.18 48.8172C50.18 47.8304 49.7414 47.326 49.0397 46.6023L47.3511 44.8699C46.1669 43.6637 45.9256 42.8962 45.9256 41.7558C45.9256 41.076 45.9256 38.8392 48.8204 38.8392C49.4563 38.8392 50.5309 38.9488 51.1011 39.8699C51.4519 40.462 51.4519 40.8786 51.4519 42.6988H50.0923C50.0484 41.5146 50.0484 41.383 50.0265 41.1637C49.9826 40.9444 49.8291 40.155 48.7326 40.155C47.4388 40.155 47.4388 41.2734 47.4388 41.6462C47.4388 42.5892 47.7677 42.962 48.6449 43.883L50.2239 45.5278C51.2546 46.6243 51.7151 47.2602 51.7151 48.6857C51.7151 51.3392 49.6318 51.6681 48.7107 51.6681C47.5046 51.6681 46.8686 51.2734 46.6274 51.0541C45.8379 50.44 45.6625 49.4971 45.6625 48.576V47.2164H45.5967Z" fill="white"/>
<path d="M58 58.2237H0V0.223694H58V58.2237ZM1.52919 56.6727H56.449V1.75288H1.52919V56.6727Z" fill="white"/>
</g>
<defs>
<clipPath id="clipcds">
<rect width="300" height="58" fill="white" transform="translate(0 0.223694)"/>
</clipPath>
</defs>
</svg>
