<svg width="135" height="32" viewBox="0 0 135 32" fill="none" xmlns="http://www.w3.org/2000/svg">
<path d="M127.77 0.196289H132.647V9.95386H127.77V0.196289ZM119.33 5.07508L119.049 5.1689C119.049 5.1689 120.737 6.57624 120.737 6.67006C120.831 6.76389 120.924 6.76389 120.831 7.04536C120.737 7.32682 120.643 7.60829 120.643 7.60829C120.643 7.60829 122.144 7.32682 122.331 7.233C122.519 7.233 122.613 7.233 122.613 7.42065C122.613 7.60829 122.519 9.20328 122.519 9.20328H122.988C122.988 9.20328 122.894 7.51447 122.894 7.42065C122.894 7.233 122.988 7.233 123.175 7.233C123.363 7.233 124.863 7.60829 124.863 7.60829C124.863 7.60829 124.769 7.233 124.676 7.04536C124.582 6.76389 124.676 6.76389 124.769 6.67006C124.863 6.57624 126.458 5.1689 126.458 5.1689L126.176 5.07508C125.989 4.98125 126.082 4.88743 126.082 4.79361C126.082 4.69978 126.364 3.76156 126.364 3.76156C126.364 3.76156 125.613 3.9492 125.52 3.9492C125.426 3.9492 125.332 3.9492 125.332 3.85538C125.332 3.76156 125.145 3.38627 125.145 3.38627C125.145 3.38627 124.301 4.32449 124.207 4.41832C124.019 4.60596 123.832 4.41832 123.925 4.23067C123.925 4.04303 124.394 2.07275 124.394 2.07275C124.394 2.07275 123.925 2.35421 123.738 2.44804C123.55 2.54186 123.457 2.54186 123.457 2.35421C123.363 2.16657 122.8 1.13452 122.8 1.04069C122.8 1.04069 122.237 2.16657 122.144 2.35421C122.05 2.54186 121.956 2.54186 121.862 2.44804C121.675 2.35421 121.206 2.07275 121.206 2.07275C121.206 2.07275 121.675 4.04303 121.675 4.23067C121.675 4.41832 121.581 4.51214 121.393 4.41832L120.456 3.38627C120.456 3.38627 120.362 3.66773 120.268 3.76156C120.268 3.85538 120.174 3.9492 120.08 3.85538C119.893 3.85538 119.143 3.66773 119.143 3.66773C119.143 3.66773 119.424 4.60596 119.518 4.69978C119.518 4.79361 119.518 4.98125 119.33 5.07508ZM113.047 0.196289H117.923V9.95386H113.047V0.196289Z" fill="white"/>
<path d="M133.74 29.4657C133.365 30.3101 132.615 30.5915 132.146 30.5915C131.584 30.5915 129.895 30.4977 129.895 26.0881C129.895 26.0881 129.895 17.175 129.895 16.612C129.895 13.7035 127.645 11.358 121.83 11.358C115.547 11.358 115.453 14.4541 115.453 15.2047C115.36 16.0491 115.828 16.9873 117.423 16.9873C118.829 16.9873 119.204 15.3923 119.392 14.8294C119.58 14.1727 119.673 12.2962 122.205 12.2962C124.362 12.2962 125.675 14.1727 125.769 16.8935C125.769 17.3626 125.769 17.6441 125.769 17.9255C125.769 18.1132 125.769 18.207 125.769 18.3946V18.4885C125.582 19.4267 125.113 19.8958 124.269 20.2711C123.143 20.834 119.861 21.3031 119.486 21.397C118.173 21.6784 114.515 22.6166 114.609 26.4633C114.703 30.2162 118.454 31.5297 121.08 31.4359C123.612 31.3421 125.113 30.3101 125.769 29.7471C126.144 29.4657 126.144 29.4657 126.426 29.8409C126.801 30.2162 128.02 31.4359 130.927 31.4359C133.928 31.4359 134.303 30.0286 134.491 29.5595C134.585 29.278 133.928 28.9965 133.74 29.4657ZM122.018 30.4977C119.392 30.4977 118.736 28.3398 118.736 27.2139C118.736 26.1819 119.298 24.024 121.924 22.5228C121.924 22.5228 123.143 21.7722 125.488 20.834C125.582 20.834 125.675 20.834 125.675 20.834C125.675 20.834 125.769 20.9278 125.769 21.0217V21.1155V21.2093V25.1498C125.769 28.246 124.269 30.4977 122.018 30.4977ZM113.39 30.4039C113.015 30.3101 110.67 30.5915 110.67 23.461C110.67 16.3306 110.67 1.03757 110.67 1.03757C110.67 0.756101 110.67 0.00552461 109.826 0.00552461C108.982 0.00552461 103.356 0.286991 102.98 0.380813C102.605 0.380813 102.324 0.849923 102.98 0.849923C103.637 0.943745 106.638 1.13139 106.638 6.10396C106.638 8.54333 106.638 10.9827 106.638 12.7653C106.638 12.8591 106.638 12.953 106.638 12.953C106.638 13.1406 106.638 13.2344 106.544 13.3283C106.544 13.3283 106.544 13.3283 106.544 13.4221C106.45 13.5159 106.357 13.4221 106.075 13.2344C105.606 12.8591 103.449 11.5456 100.73 11.5456C96.3221 11.5456 90.8828 14.7356 90.8828 21.3031C90.8828 28.3398 95.8532 31.7174 101.011 31.7174C103.543 31.7174 105.325 30.5915 105.981 30.2162C106.732 29.7471 106.638 29.8409 106.732 30.4977C106.825 30.9668 106.732 31.905 108.045 31.8112C109.451 31.6236 112.827 31.2483 113.484 31.1545C114.14 30.873 113.953 30.4977 113.39 30.4039ZM101.761 30.6853C97.635 30.6853 95.478 25.8066 95.478 21.1155C95.478 15.9553 98.3852 12.4839 101.48 12.6715C105.513 12.953 106.544 16.1429 106.638 21.8661C106.638 22.2414 106.638 22.6166 106.638 23.0858C106.544 28.7151 104.2 30.6853 101.761 30.6853ZM90.789 29.4657C90.4139 30.3101 89.6636 30.5915 89.1947 30.5915C88.632 30.5915 86.944 30.4977 86.944 26.0881C86.944 26.0881 86.944 17.175 86.944 16.612C86.944 13.7035 84.6933 11.358 78.8789 11.358C72.5956 11.358 72.5018 14.4541 72.5018 15.2047C72.408 16.0491 72.8769 16.9873 74.4712 16.9873C75.8779 16.9873 76.253 15.3923 76.4406 14.8294C76.6281 14.1727 76.7219 12.2962 79.254 12.2962C81.4109 12.2962 82.8177 14.1727 82.8177 16.9873V17.0811C82.8177 17.175 82.8177 17.2688 82.8177 17.2688V17.5503C82.8177 17.6441 82.8177 17.8317 82.8177 17.9255C82.7239 19.3329 82.3487 19.802 81.2234 20.3649C80.098 20.9278 76.8157 21.397 76.4406 21.4908C75.1276 21.7722 71.4702 22.7105 71.564 26.5572C71.6578 30.31 75.409 31.6236 78.0349 31.5297C80.5669 31.4359 82.0674 30.4039 82.7239 29.8409C83.099 29.5595 83.099 29.5595 83.3803 29.9348C83.7555 30.3101 84.9746 31.5297 87.8818 31.5297C90.8828 31.5297 91.2579 30.1224 91.4455 29.6533C91.633 29.278 91.0703 28.9965 90.789 29.4657ZM79.1602 30.4977C76.5344 30.4977 75.8779 28.3398 75.8779 27.2139C75.8779 26.1819 76.4406 24.024 79.0664 22.5228C79.0664 22.5228 80.2856 21.7722 82.6301 20.834C82.7239 20.834 82.8177 20.834 82.8177 20.834V20.9278C82.8177 21.0217 82.8177 21.1155 82.8177 21.3031V21.2093C82.8177 21.2093 82.8177 21.2093 82.8177 21.3031V25.2437C82.8177 28.246 81.3172 30.4977 79.1602 30.4977ZM70.1573 30.4039C69.407 30.2162 68.0941 29.3718 68.0941 25.2437V17.7379C68.0941 15.9553 68.2817 11.358 61.2481 11.358C57.5907 11.358 55.5275 13.2344 55.34 13.3283C55.0586 13.6097 54.871 13.7035 54.7773 13.2344C54.6835 12.8591 54.4959 12.2962 54.4021 11.9209C54.3084 11.6395 54.1208 11.358 53.4643 11.4518C52.8079 11.5456 48.6815 12.2024 47.9313 12.39C47.2748 12.5777 47.4624 12.8591 47.9313 12.953C48.4002 13.0468 50.6509 13.2344 50.6509 17.0811C50.6509 20.9278 50.6509 25.1498 50.6509 25.1498C50.6509 29.8409 49.7131 30.2162 48.8691 30.4977C47.7437 30.7792 48.3064 31.1545 48.7753 31.1545C48.7753 31.1545 57.1218 31.1545 57.3093 31.1545C57.872 31.1545 58.1534 30.5915 57.028 30.4039C55.9026 30.2162 54.871 29.5595 54.871 25.9004C54.871 25.5251 54.871 21.4908 54.871 20.7402C54.871 18.7699 54.4021 12.7653 59.8414 12.6715C63.6864 12.5777 64.0615 15.7676 64.0615 17.8317V25.8066C64.0615 29.0904 63.1237 30.1224 61.9984 30.3101C60.9668 30.4977 61.1544 30.9668 61.717 30.9668C61.9046 30.9668 70.4386 30.9668 70.4386 30.9668C70.9075 31.1545 71.3764 30.6853 70.1573 30.4039ZM47.3686 29.4657C46.9935 30.3101 46.2432 30.5915 45.7743 30.5915C45.2117 30.5915 43.5236 30.4977 43.5236 26.0881C43.5236 26.0881 43.5236 17.175 43.5236 16.612C43.5236 13.7035 41.2729 11.358 35.4585 11.358C29.1752 11.358 29.0814 14.4541 29.0814 15.2047C28.9876 16.0491 29.4565 16.9873 31.0508 16.9873C32.4575 16.9873 32.8326 15.3923 33.0202 14.8294C33.2077 14.1727 33.3015 12.2962 35.8336 12.2962C37.9905 12.2962 39.3035 14.1727 39.3973 16.8935C39.3973 17.3626 39.3973 17.6441 39.3973 17.9255C39.3973 18.1132 39.3973 18.3008 39.3035 18.3946V18.4885C39.1159 19.4267 38.647 19.8958 37.803 20.2711C36.6776 20.834 33.3953 21.3031 33.0202 21.397C31.7073 21.6784 28.0498 22.6166 28.1436 26.4633C28.2374 30.2162 31.9886 31.5297 34.6144 31.4359C37.1465 31.3421 38.647 30.3101 39.3035 29.7471C39.6786 29.4657 39.6786 29.4657 39.9599 29.8409C40.3351 30.2162 41.5542 31.4359 44.4614 31.4359C47.4624 31.4359 47.8375 30.0286 48.0251 29.5595C48.2126 29.278 47.5562 28.9965 47.3686 29.4657ZM35.646 30.4977C33.0202 30.4977 32.3637 28.3398 32.3637 27.2139C32.3637 26.0881 32.9264 24.024 35.5523 22.5228C35.5523 22.5228 36.7714 21.7722 39.1159 20.834C39.2097 20.834 39.3035 20.834 39.3035 20.834C39.3035 20.834 39.3973 20.9278 39.3973 21.0217C39.3973 21.0217 39.3973 21.1155 39.3973 21.2093V21.3031V25.2437C39.3973 28.246 37.8968 30.4977 35.646 30.4977ZM26.6431 22.3352C25.7053 25.3375 23.9235 30.2162 17.4526 30.4039C10.7004 30.4977 6.66785 25.9004 6.48029 17.3626C6.19895 8.26187 10.1377 1.31903 16.2335 1.13139C23.0794 1.03757 25.5177 9.20009 25.6115 10.4198C25.7053 11.358 26.9244 11.2642 26.9244 10.326C26.9244 9.85684 26.3618 1.78814 26.1742 0.849923C25.9866 -0.0882975 25.2364 0.286991 25.0488 0.662279C24.9551 0.943745 25.1426 0.380813 24.7675 1.22521C24.3924 2.06961 23.3608 1.6005 22.9857 1.50668C21.8603 1.03757 19.7033 -0.0882974 16.2335 0.00552461C8.26212 0.193169 0.10321 6.10396 0.290771 16.4244C0.478332 26.4633 8.54346 32.0927 16.0459 31.9988C22.8919 31.905 26.7369 27.5892 27.8623 22.6166C28.2374 21.397 27.0182 21.1155 26.6431 22.3352Z" fill="white"/>
</svg>
